# xmcd
#
# Track frame offsets: 
#        179
#        12923
#        25012
#        37438
#        49074
#        64783
#        81219
#        93953
#        103718
#        115781
#
# Disc length: 1744 seconds
#
# Revision: 4
# Processed by: cddbd v1.5.2PL0 Copyright (c) Steve Scherf et al.
# Submitted via: ExactAudioCopyFreeDBPlugin 1.0
#
DISCID=7b06ce0a
DTITLE=JOHNNY CASH - 1975 - Johnny Cash - John R. Cash
DYEAR=1975
DGENRE=Country
TTITLE0=My old Kentucky home  (1975)
TTITLE1=Hard times comin'  (1975)
TTITLE2=The lady came from Baltimore  (1974)
TTITLE3=Lonesome to the bone  (1974)
TTITLE4=The night they drove old Dixie down  (1975)
TTITLE5=Clean your own tables  (1975)
TTITLE6=Jesus was our saviour (Cotton was our king)  (1975)
TTITLE7=Reason to believe  (1975)
TTITLE8=Cocaine Carolina  (1975)
TTITLE9=Smokey factory blues  (1975)
EXTD=(C)1975 Columbia PC 33370-1\nProduced by Gary Klein
EXTT0=
EXTT1=
EXTT2=
EXTT3=
EXTT4=
EXTT5=
EXTT6=
EXTT7=
EXTT8=
EXTT9=
PLAYORDER=
